<svg width="100" height="100" viewBox="0 0 100 100" fill="none" xmlns="http://www.w3.org/2000/svg">
<rect width="100" height="100" fill="#F5F5F5"/>
<g id="Homepage" clip-path="url(#clip0_0_1)">
<rect width="1600" height="6912" transform="translate(-255 -1208)" fill="white"/>
<g id="Menu">
<rect id="bg" x="-255" y="-257" width="1600" height="712" fill="white"/>
<g id="content">
<g id="card">
<g id="1">
<rect id="bg_2" x="-102.25" y="-39.25" width="304.5" height="373.5" rx="11.25" fill="white" stroke="#DBDFD0" stroke-width="1.5"/>
<g id="text">
<g id="icon">
<circle id="Ellipse 42" opacity="0.07" cx="50" cy="50" r="50" fill="#4D592B"/>
<g id="tea 1" clip-path="url(#clip1_0_1)">
<g id="Group">
<path id="Vector" d="M46 28V35" stroke="#474747" stroke-width="5" stroke-linecap="round" stroke-linejoin="round"/>
<path id="Vector_2" d="M36 30V37" stroke="#474747" stroke-width="5" stroke-linecap="round" stroke-linejoin="round"/>
<path id="Vector_3" d="M56 30V37" stroke="#474747" stroke-width="5" stroke-linecap="round" stroke-linejoin="round"/>
<path id="Vector_4" d="M63 48H71V56C71 58.209 69.209 60 67 60H63" stroke="#474747" stroke-width="5" stroke-linecap="round" stroke-linejoin="round"/>
<path id="Vector_5" d="M51 72H41C34.373 72 29 66.627 29 60V44H63V60C63 66.627 57.627 72 51 72Z" stroke="#474747" stroke-width="5" stroke-linecap="round" stroke-linejoin="round"/>
<path id="Vector_6" d="M54 52H44V62H54V52Z" stroke="#474747" stroke-width="5" stroke-linecap="round" stroke-linejoin="round"/>
<path id="Vector_7" d="M49 44V52" stroke="#474747" stroke-width="5" stroke-linecap="round" stroke-linejoin="round"/>
</g>
</g>
</g>
</g>
</g>
</g>
</g>
</g>
</g>
<defs>
<clipPath id="clip0_0_1">
<rect width="1600" height="6912" fill="white" transform="translate(-255 -1208)"/>
</clipPath>
<clipPath id="clip1_0_1">
<rect width="48" height="50" fill="white" transform="translate(26 25)"/>
</clipPath>
</defs>
</svg>
